<svg viewBox="0 0 50 50" class="" role="presentation" focusable="false" xmlns="http://www.w3.org/2000/svg" xmlns:xlink="http://www.w3.org/1999/xlink" id="FxSymbol0-01d" width="100%" height="100%"><g><title></title><style>.msportalfx-svg-c01{fill:#fff}.msportalfx-svg-c02{fill:#e5e5e5}.msportalfx-svg-c03{fill:#a0a1a2}.msportalfx-svg-c04{fill:#7a7a7a}.msportalfx-svg-c05{fill:#3e3e3e}.msportalfx-svg-c06{fill:#1e1e1e}.msportalfx-svg-c07{fill:#0f0f0f}.msportalfx-svg-c08{fill:#ba141a}.msportalfx-svg-c09{fill:#dd5900}.msportalfx-svg-c10{fill:#ff8c00}.msportalfx-svg-c11{fill:#fcd116}.msportalfx-svg-c12{fill:#fee087}.msportalfx-svg-c13{fill:#b8d432}.msportalfx-svg-c14{fill:#7fba00}.msportalfx-svg-c15{fill:#59b4d9}.msportalfx-svg-c16{fill:#3999c6}.msportalfx-svg-c17{fill:#804998}.msportalfx-svg-c18{fill:#ec008c}.msportalfx-svg-c19{fill:#0072c6}.msportalfx-svg-c20{fill:#68217a}.msportalfx-svg-c21{fill:#00188f}.msportalfx-svg-c22{fill:#e81123}.msportalfx-svg-c23{fill:#cae3f3}.msportalfx-svg-c24{fill:#59aed3}.msportalfx-svg-c25{fill:#4c3b12}.msportalfx-svg-c26{fill:#be9555}.msportalfx-svg-c27{fill:#4f4d52}.msportalfx-svg-c28{fill:#ef6f59}.msportalfx-svg-c29{fill:#f7cb64}.msportalfx-svg-c97{fill:#ffb900}.msportalfx-svg-c98{fill:#00a4ef}.msportalfx-svg-c99{fill:#f25022}</style><path d="M26 21.3v-5h-2.5v5c0 .9-.8 1.7-2.1 2.1l-3.4.7c-2.3.7-3.9 2.5-3.9 4.5v5.7h2.5v-5.7c0-.9.8-1.7 2.1-2.1l3.4-.8c2.3-.6 3.9-2.4 3.9-4.4z" class="msportalfx-svg-c15"></path><path d="M19.6 36.9v-4.6c0-1.1-.9-2-2-2H13c-1.1 0-2 .9-2 2v4.6c0 1.1.9 2 2 2h4.6c1.1 0 2-.9 2-2z" class="msportalfx-svg-c14"></path><path d="M23.2 21.3v-5h2.5v5c0 .9.8 1.7 2.1 2.1l4.2.9c2.3.7 3.9 2.5 3.9 4.5v5.7h-2.5v-5.7c0-.9-.8-1.7-2.1-2.1l-4.2-.9c-2.3-.7-3.9-2.5-3.9-4.5z" class="msportalfx-svg-c15"></path><path d="M30.4 37.1v-4.6c0-1.1.9-2 2-2H37c1.1 0 2 .9 2 2v4.6c0 1.1-.9 2-2 2h-4.6c-1.1 0-2-.9-2-2z" class="msportalfx-svg-c14"></path><path d="M23.2 16.3H26v4.8h-2.8z" class="msportalfx-svg-c15"></path><path d="M26.5 11.7v3.7h-3.7v-3.7h3.7m.8-2.8H22c-1.1 0-2 .9-2 2v5.3c0 1.1.9 2 2 2h5.3c1.1 0 2-.9 2-2v-5.3c0-1.1-.9-2-2-2z" class="msportalfx-svg-c19"></path><path d="M7.9 44.4c-2.1 0-3.6-.4-4.5-1.1-.9-.8-1.3-2.1-1.3-4V28.9c0-1.7-.7-2.6-2.1-2.6v-2.6c1.4 0 2.1-.9 2.1-2.7V10.8c0-1.9.4-3.3 1.3-4.1s2.4-1.1 4.5-1.1v2.6c-1.5 0-2.3.8-2.3 2.5v10c0 2.3-.7 3.7-2.2 4.3 1.4.6 2.2 2 2.2 4.3v9.9c0 .9.2 1.6.5 2 .4.4.9.6 1.7.6l.1 2.6c-.1 0 0 0 0 0zM42.1 5.6c2.1 0 3.6.4 4.5 1.1.9.8 1.3 2.1 1.3 4v10.4c0 1.7.7 2.6 2.1 2.6v2.6c-1.4 0-2.1.9-2.1 2.7v10.1c0 1.9-.4 3.3-1.3 4.1-.9.8-2.4 1.2-4.5 1.2v-2.6c1.5 0 2.3-.8 2.3-2.5v-10c0-2.3.7-3.7 2.2-4.3-1.4-.6-2.2-2-2.2-4.3v-9.9c0-.9-.2-1.6-.5-2-.4-.4-.9-.6-1.7-.6l-.1-2.6z" class="msportalfx-svg-c15"></path></g></svg>