<svg id="Twotone" height="512" viewBox="0 0 64 64" width="512" xmlns="http://www.w3.org/2000/svg"><path d="m-3.15 19.57h12a24 24 0 0 1 24 24 0 0 0 0 1 0 0h-12a24 24 0 0 1 -24-24 0 0 0 0 1 0 0z" fill="#42b983" transform="matrix(-.785 -.62 .62 -.785 6.94 65.56)"/><path d="m40.65 23.68a16 16 0 0 0 -.24-17.68l-10.74 7.33a13 13 0 0 0 -3.43 18 29.87 29.87 0 0 1 14.41-7.65z" fill="#42b983"/><path d="m41 43h-4a10 10 0 0 1 -10-10 20.88 20.88 0 0 1 .17-2.51 29.94 29.94 0 0 0 -10.17 22.51h14a30 30 0 0 0 25.62-14.38 29.87 29.87 0 0 1 -15.62 4.38z" fill="#42b983"/><path d="m61 22h-14a29.83 29.83 0 0 0 -4.46.33 17 17 0 0 0 -1.31-16.89 1 1 0 0 0 -1.39-.27l-10.73 7.33a13.93 13.93 0 0 0 -6.05 10.27 24.77 24.77 0 0 0 -4.86-5.12l-9.41-7.44a1 1 0 0 0 -1.41.17 25 25 0 0 0 4.13 35.12l4.73 3.73a31.27 31.27 0 0 0 -.24 3.77s0 .06 0 .09a30.52 30.52 0 0 0 -1 4.78 1 1 0 0 0 .87 1.13h.13a1 1 0 0 0 1-.87 29.62 29.62 0 0 1 .83-4.13h2.26c-.28.72-.55 1.33-.83 1.9a1 1 0 0 0 .44 1.34.91.91 0 0 0 .45.11 1 1 0 0 0 .85-.55 24.8 24.8 0 0 0 1-2.41 1.07 1.07 0 0 0 .07-.39h8.93a31 31 0 0 0 31-31 1 1 0 0 0 -1-1zm-30.77-7.84 9.89-6.75a15 15 0 0 1 -.12 15.39 30.89 30.89 0 0 0 -10.83 4.86 11.92 11.92 0 0 1 5-7.72 1 1 0 1 0 -1.13-1.65 14 14 0 0 0 -6.04 11.07l-.45.39a25 25 0 0 0 -1.26-3.22 12 12 0 0 1 4.94-12.37zm-17.49 29.76a23 23 0 0 1 -4.39-31.5l8.65 6.8a22.81 22.81 0 0 1 7.9 12.07 30.88 30.88 0 0 0 -3.39 4.1 25.13 25.13 0 0 0 -2-3.6l.49-3.67a1 1 0 1 0 -2-.24l-.2 1.59a24 24 0 0 0 -3.61-3.47 1 1 0 0 0 -1.4.16 1 1 0 0 0 .21 1.37 21.51 21.51 0 0 1 2.18 2 6 6 0 0 0 -2.74.4 1 1 0 1 0 .73 1.86 4.19 4.19 0 0 1 3.84.42l.75.5a22.55 22.55 0 0 1 2.06 3.73 6.81 6.81 0 0 0 -6-1.39 1 1 0 1 0 .42 1.95 4.83 4.83 0 0 1 5.15 2 31.22 31.22 0 0 0 -2.8 8zm18.26 8.08h-12.52a28.62 28.62 0 0 1 5.72-9.53h.06a6.61 6.61 0 0 1 6.66 2.77 1 1 0 0 0 .83.44 1 1 0 0 0 .56-.18 1 1 0 0 0 .26-1.39 8.62 8.62 0 0 0 -6.3-3.71c.58-.52 1.17-1 1.79-1.5.32-.25.65-.48 1-.72h1.92a8 8 0 0 1 8 7 1 1 0 0 0 1.02.82h.12a1 1 0 0 0 .88-1.12 9.93 9.93 0 0 0 -8.74-8.67 28.53 28.53 0 0 1 3.93-1.72l1.07-.08a8.46 8.46 0 0 1 7.89 4.1 1 1 0 0 0 .85.49 1 1 0 0 0 .51-.14 1 1 0 0 0 .35-1.37 10.42 10.42 0 0 0 -5.11-4.34 29.48 29.48 0 0 1 7.74 0 1 1 0 1 0 .26-2 30.93 30.93 0 0 0 -12.29.85l.5-1.7a1 1 0 0 0 -1.96-.58l-.87 3a31.06 31.06 0 0 0 -4.85 2.28l.72-2.76a1 1 0 0 0 -2-.48l-1.2 4.82c-.33.24-.66.47-1 .73a30.89 30.89 0 0 0 -8.15 9.41 29 29 0 0 1 28.35-22.72h13a29 29 0 0 1 -29 28z" fill="#333"/></svg>
