<svg xmlns="http://www.w3.org/2000/svg" xmlns:xlink="http://www.w3.org/1999/xlink" version="1.1" id="Layer_1" x="0px" y="0px" viewBox="0 0 60 45"  xml:space="preserve">
<style type="text/css">
	.st0{fill:#0066FF;}
</style>
<path class="st0" d="M3.5,38h7v-6.5h-7V38z M31.8,16.9h-4c-0.1,0-0.3,0.1-0.3,0.2l-6,16.8c-0.5,1.5-2,2.4-3.7,2.4h-3.8v2.9  c0,1.1-0.9,1.9-2.1,1.9H2.1c-1.2,0-2.1-0.9-2.1-1.9v-9.1c0-1.1,0.9-1.9,2.1-1.9H12c1.2,0,2.1,0.9,2.1,1.9v2.9h3.8  c0.1,0,0.3-0.1,0.3-0.2l6-16.8c0.5-1.5,2-2.4,3.7-2.4h4v-2.9c0-1.1,0.9-1.9,2.1-1.9h9.8c1.2,0,2.1,0.9,2.1,1.9v9.1  c0,1.1-0.9,1.9-2.1,1.9h-9.8c-1.2,0-2.1-0.9-2.1-1.9V16.9z M60,6.5v22.7c0,3.6-3.2,6.5-7.1,6.5H31.8v-2.2h21.2  c2.6,0,4.7-1.9,4.7-4.3V6.5c0-2.4-2.1-4.3-4.7-4.3H7.1c-2.6,0-4.7,1.9-4.7,4.3v17.8H0V6.5C0,2.9,3.2,0,7.1,0h45.8  C56.8,0,60,2.9,60,6.5z"/>
</svg>