<svg xmlns="http://www.w3.org/2000/svg" xmlns:xlink="http://www.w3.org/1999/xlink" version="1.1" id="Layer_1" x="0px" y="0px" viewBox="0 0 60 45" xml:space="preserve">
<path d="M35.2,22.2c-1.8,0-3.3,1.4-3.3,3l0,13.4c0,1.7,1.5,3,3.3,3c1.8,0,3.3-1.4,3.3-3l0-13.4C38.4,23.5,37,22.2,35.2,22.2z   M45.5,9.9c-1.8,0-3.3,1.4-3.3,3l0,25.5c0,1.7,1.5,3,3.3,3c1.8,0,3.3-1.4,3.3-3l0-25.5C48.8,11.3,47.3,9.9,45.5,9.9z M24.8,17.5  c-1.8,0-3.3,1.4-3.3,3l0,18c0,1.7,1.5,3,3.3,3c1.8,0,3.3-1.4,3.3-3l0-18C28.1,18.9,26.6,17.5,24.8,17.5z M14.5,28.5L14.5,28.5  c-1.8,0-3.3,1.4-3.3,3l0,7c0,1.7,1.5,3,3.3,3h0c1.8,0,3.3-1.4,3.3-3l0-7C17.8,29.9,16.3,28.5,14.5,28.5z M60,6.6v22.9  c0,3.6-3.2,6.6-7.1,6.6h-1.2v-2.2h1.2c2.6,0,4.7-1.9,4.7-4.3V6.6c0-2.4-2.1-4.3-4.7-4.3H7.1c-2.6,0-4.7,1.9-4.7,4.3v22.9  c0,2.4,2.1,4.3,4.7,4.3h1.2V36H7.1C3.2,36,0,33.1,0,29.5V6.6C0,2.9,3.2,0,7.1,0h45.8C56.8,0,60,2.9,60,6.6z"  fill="#f2c80f"/>
</svg>