<svg xmlns="http://www.w3.org/2000/svg" xmlns:xlink="http://www.w3.org/1999/xlink" version="1.1" id="Layer_1" x="0px" y="0px" viewBox="0 0 60 45" xml:space="preserve">
<style type="text/css">
	.st0{fill:#742774;}
</style>
<path class="st0" d="M52.9,0H7.1C3.2,0,0,2.9,0,6.6v22.9C0,33,3.2,36,7.1,36h1.2v-2.2H7.1c-2.6,0-4.7-1.9-4.7-4.3V6.6  c0-2.4,2.1-4.3,4.7-4.3h45.8c2.6,0,4.7,1.9,4.7,4.3v22.9c0,2.4-2.1,4.3-4.7,4.3h-1.2V36h1.2c3.9,0,7.1-2.9,7.1-6.6V6.6  C60,2.9,56.8,0,52.9,0z M39.6,25.6l4-3.7c0.7-0.7,0.7-1.8,0-2.5l-4-3.7c-0.7-0.7-1.9-0.7-2.7,0l-4,3.7c-0.7,0.7-0.7,1.8,0,2.5l4,3.7  C37.6,26.2,38.8,26.2,39.6,25.6z M26.9,27.1l-4-3.7c-0.7-0.7-1.9-0.7-2.7,0l-4,3.7c-0.7,0.7-0.7,1.8,0,2.5l1,0.9l3,2.8  c0.7,0.7,1.9,0.7,2.7,0l3-2.8l1-0.9C27.6,28.9,27.6,27.8,26.9,27.1z M33.9,30.8L22.8,41c-0.7,0.7-1.9,0.7-2.7,0L9.1,30.8l-1.3-1.2  c-0.7-0.7-0.7-1.8,0-2.5l1.3-1.2l11.1-10.3c0.7-0.7,1.9-0.7,2.7,0l11.1,10.3l1.3,1.2c0.7,0.7,0.7,1.8,0,2.5L33.9,30.8z M52,27.1  l-4-3.7c-0.7-0.7-1.9-0.7-2.7,0l-4,3.7c-0.7,0.7-0.7,1.8,0,2.5l4,3.7c0.7,0.7,1.9,0.7,2.7,0l4-3.7C52.7,28.9,52.7,27.8,52,27.1z   M43.6,34.9c0.7,0.7,0.7,1.8,0,2.5l-4,3.7c-0.7,0.7-1.9,0.7-2.7,0l-4-3.7c-0.7-0.7-0.7-1.8,0-2.5l4-3.7c0.7-0.7,1.9-0.7,2.7,0  L43.6,34.9z"/>
</svg>